<?xml version="1.0" encoding="utf-8"?>
<!-- Svg Vector Icons : http://www.onlinewebfonts.com/icon -->
<!DOCTYPE svg PUBLIC "-//W3C//DTD SVG 1.1//EN" "http://www.w3.org/Graphics/SVG/1.1/DTD/svg11.dtd">
<svg version="1.1" xmlns="http://www.w3.org/2000/svg" xmlns:xlink="http://www.w3.org/1999/xlink" x="0px" y="0px" viewBox="0 0 256 256" enable-background="new 0 0 256 256" xml:space="preserve">
<metadata> Svg Vector Icons : http://www.onlinewebfonts.com/icon </metadata>
<g><g><g><path fill="rgba(128, 128, 128, 0.356)" d="M245.2,225.1c-5.3-2-10.2-3.3-14.6-3.8c-4.5-0.4-7.7-1.5-9.8-3.3c-1.2-0.8-2.9-3.4-5-8.1c-3.9-7.8-7-14.8-9.2-21.1c-3.7-10-6.8-17.8-9.2-23.3c-5.4-12.6-9.9-23.7-13.6-33.3c-2-5.2-7.9-19.2-17.6-42.1l-29.1-68.1l-1.6-3H128h-10.6L77.6,121.8L44,209.1c-2.6,4.9-4.9,8.1-6.8,9.7c-2,1.4-7.2,2.9-15.6,4.4c-5.5,1-9.3,1.9-11.3,2.6L10,236.9h3c8.1,0,16-0.7,23.7-2l6.8-1.1c26.8,1.9,43.3,2.8,49.5,2.8c0.2-0.9,0.3-2.2,0.3-3.8c0-2.8,0-5.6-0.1-8.2c-2-0.3-3.9-0.6-5.7-0.8c-1.9-0.3-3.3-0.5-4.3-0.7c-1-0.2-1.6-0.3-1.9-0.3c-7.3-1-12.2-2.6-14.6-4.5c-1.6-1.1-2.4-3.2-2.4-6.1c0-1.9,1.1-5.9,3.3-11.9c7.1-19.7,12-32.7,14.7-38.9l63.8,0.3l13.1,32.3l6.7,16.2c0.6,1.6,0.8,3.1,0.8,4.6c0,1.4-0.6,2.7-1.7,3.8c-1.1,0.9-4.4,2-9.7,3.3l-18.6,4c-0.4,3.1-0.6,6.8-0.6,11.1l8.2-0.3l28.4-1.6c5.3-0.2,11.7-0.3,19.1-0.3c9.1,0,18,0.4,26.8,1.1c10.6,0.7,19.7,1.1,27.2,1.1c0.1-1.1,0.1-2.4,0.1-3.7C246,231.5,245.7,228.8,245.2,225.1z M134.8,144.6c-1.3,0-3.8,0-7.4-0.1c-3.6,0-9.3-0.1-16.9-0.2c-7.6-0.1-14.9-0.2-21.8-0.3l24.1-63.8c3.7,7.5,8,17.4,13.1,29.9c5.7,13.8,10,25.2,13.1,34.2L134.8,144.6z"/></g><g></g><g></g><g></g><g></g><g></g><g></g><g></g><g></g><g></g><g></g><g></g><g></g><g></g><g></g><g></g></g></g>
</svg>